<svg height="413pt" viewBox="-20 0 413 413.448" width="413pt" xmlns="http://www.w3.org/2000/svg"><path d="m329.285156 355.597656h-.660156c-95.5625-3.378906-144.671875-95.625-146.710938-99.554687-4.671874-8.9375-1.210937-19.972657 7.730469-24.644531 8.941407-4.671876 19.976563-1.210938 24.644531 7.730468.5.945313 41.660157 77.347656 115.644532 79.964844 9.941406.359375 17.761718 8.609375 17.589844 18.554688-.171876 9.945312-8.273438 17.917968-18.222657 17.9375zm0 0" fill="#fff"/><path d="m117.742188 311.421875c-3.09375-.003906-6.140626-.792969-8.84375-2.300781-89.285157-49.59375-103.007813-158.277344-103.5625-162.882813-1.042969-9.929687 6.089843-18.851562 16.007812-20.027343 9.914062-1.171876 18.933594 5.839843 20.238281 15.742187.199219 1.597656 12.589844 95.007813 85.039063 135.253906 7.277344 4.042969 10.894531 12.488281 8.804687 20.542969-2.089843 8.054688-9.363281 13.675781-17.683593 13.664062zm0 0" fill="#74c7c5"/><path d="m207.820312 178.03125c-7.765624.007812-14.683593-4.898438-17.246093-12.230469-2.5625-7.328125-.207031-15.476562 5.871093-20.308593 36-28.609376 20.921876-83.601563 20.765626-84.164063-2.75-9.699219 2.886718-19.789063 12.585937-22.539063 9.699219-2.746093 19.789063 2.886719 22.539063 12.585938.90625 3.199219 21.636718 79.125-33.171876 122.691406-3.222656 2.570313-7.222656 3.96875-11.34375 3.964844zm0 0" fill="#fff"/><path d="m27.222656 56.6875c-.148437-7.765625 4.632813-14.773438 11.917969-17.46875 7.28125-2.695312 15.472656-.484375 20.414063 5.507812 29.246093 35.476563 83.976562 19.421876 84.523437 19.257813 9.648437-2.921875 19.839844 2.535156 22.757813 12.179687 2.921874 9.648438-2.53125 19.839844-12.179688 22.761719-3.203125.964844-78.726562 23.050781-123.265625-30.96875-2.625-3.175781-4.097656-7.148437-4.167969-11.269531zm0 0" fill="#fff"/><path d="m171.953125 363.207031c-8.757813 0-16.28125-6.222656-17.925781-14.828125-1.644532-8.605468 3.054687-17.164062 11.195312-20.394531 161.601563-64.085937 145.4375-225.78125 145.257813-227.40625-.945313-9.917969 6.238281-18.761719 16.140625-19.871094s18.863281 5.925781 20.136718 15.808594c2.527344 35.382813-1.871093 70.914063-12.945312 104.613281-16.820312 51.960938-57.390625 122.027344-155.121094 160.800782-2.144531.847656-4.429687 1.28125-6.738281 1.277343zm0 0" fill="#74c7c5"/><path d="m140.769531 173.074219c0 13.023437-10.554687 23.578125-23.574219 23.578125-13.019531 0-23.578124-10.554688-23.578124-23.578125 0-13.019531 10.558593-23.574219 23.578124-23.574219 13.019532 0 23.574219 10.554688 23.574219 23.574219zm0 0" fill="#fff"/><path d="m368.160156 275.742188c0 7.5625-6.128906 13.691406-13.691406 13.691406-7.558594 0-13.6875-6.128906-13.6875-13.691406 0-7.558594 6.128906-13.6875 13.6875-13.6875 7.5625 0 13.691406 6.128906 13.691406 13.6875zm0 0" fill="#fff"/><path d="m89.4375 351.222656c0 10.1875-8.257812 18.445313-18.441406 18.445313-10.1875 0-18.445313-8.257813-18.445313-18.445313 0-10.183594 8.257813-18.441406 18.445313-18.441406 10.183594 0 18.441406 8.257812 18.441406 18.441406zm0 0" fill="#74c7c5"/><path d="m177.269531 19.070312c0 7.769532-6.296875 14.070313-14.066406 14.070313s-14.070313-6.300781-14.070313-14.070313c0-7.769531 6.300782-14.066406 14.070313-14.066406s14.066406 6.296875 14.066406 14.066406zm0 0" fill="#74c7c5"/><path d="m250.613281 394.761719c0 7.558593-6.128906 13.6875-13.6875 13.6875-7.558593 0-13.6875-6.128907-13.6875-13.6875 0-7.5625 6.128907-13.691407 13.6875-13.691407 7.558594 0 13.6875 6.128907 13.6875 13.691407zm0 0" fill="#fff"/><g fill="#2f2754"><path d="m129.0625 272.839844c-38.476562-21.371094-59.335938-58.632813-70.058594-86.113282-1.003906-2.570312-3.902344-3.84375-6.476562-2.84375-2.574219 1.003907-3.847656 3.902344-2.84375 6.476563 11.324218 29.023437 33.4375 68.402344 74.523437 91.238281 4.164063 2.285156 6.785157 6.625 6.871094 11.375s-2.375 9.179688-6.453125 11.617188c-4.078125 2.433594-9.148438 2.5-13.289062.175781-87.046876-48.359375-100.5-154.609375-101.046876-159.109375-.84375-7.269531 4.367188-13.847656 11.636719-14.695312 7.269531-.84375 13.847657 4.363281 14.691407 11.636718.054687.398438.554687 4.136719 1.796874 10.089844.566407 2.703125 3.21875 4.433594 5.921876 3.867188 2.703124-.566407 4.433593-3.214844 3.867187-5.917969-1.171875-5.601563-1.621094-8.964844-1.664063-9.273438-1.625-12.644531-13.128906-21.625-25.792968-20.128906-12.664063 1.496094-21.757813 12.914063-20.386719 25.589844.554687 4.707031 14.652344 115.863281 106.097656 166.667969 11.226563 6.234374 25.382813 2.191406 31.621094-9.035157 6.234375-11.226562 2.191406-25.378906-9.035156-31.617187zm0 0"/><path d="m45.597656 161.601562c-2.65625.742188-4.210937 3.5-3.46875 6.160157.285156 1.015625.585938 2.050781.898438 3.105469.78125 2.652343 3.5625 4.167968 6.214844 3.386718 2.648437-.78125 4.164062-3.5625 3.382812-6.214844-.296875-1.007812-.582031-2-.855469-2.972656-.351562-1.28125-1.203125-2.367187-2.363281-3.015625-1.160156-.652343-2.527344-.8125-3.808594-.449219zm0 0"/><path d="m207.828125 183.03125c5.25-.003906 10.347656-1.785156 14.460937-5.046875 57.410157-45.628906 35.820313-124.628906 34.878907-127.96875-3.582031-12.25-16.367188-19.324219-28.644531-15.851563-12.28125 3.472657-19.46875 16.191407-16.105469 28.503907.140625.523437 14.050781 52.59375-19.058594 78.917969-7.746094 6.152343-10.746094 16.53125-7.484375 25.871093 3.261719 9.335938 12.074219 15.589844 21.964844 15.582031zm-13.179687-24.757812c.386718-3.496094 2.15625-6.691407 4.917968-8.871094 38.304688-30.445313 23.125-87.019532 22.46875-89.433594-2-7.042969 2.085938-14.371094 9.128906-16.371094 7.042969-2 14.371094 2.089844 16.371094 9.128906.871094 3.082032 20.769532 75.886719-31.472656 117.417969-5.773438 4.390625-13.984375 3.453125-18.621094-2.128906-2.195312-2.742187-3.199218-6.25-2.792968-9.738281zm0 0"/><path d="m114.960938 109.175781c13.902343.046875 27.742187-1.789062 41.148437-5.457031 12.25-3.75 19.160156-16.703125 15.449219-28.964844-3.707032-12.261718-16.636719-19.214844-28.910156-15.546875-.527344.15625-52.265626 15.058594-79.230469-17.648437-6.292969-7.632813-16.726563-10.453125-26.007813-7.023438-9.28125 3.425782-15.375 12.351563-15.191406 22.246094.105469 5.246094 1.976562 10.304688 5.308594 14.359375 25.441406 30.847656 60.363281 38.035156 87.433594 38.035156zm-77.910157-63.046875c5.644531-4.660156 13.996094-3.855468 18.652344 1.792969 31.371094 38.050781 89.253906 21.03125 89.828125 20.859375 7.003906-2.125 14.402344 1.835938 16.523438 8.839844 2.125 7.007812-1.835938 14.40625-8.839844 16.527344-3.0625.925781-75.511719 22.113281-117.960938-29.367188-4.65625-5.648438-3.851562-14 1.796875-18.65625zm0 0"/><path d="m330.101562 314.109375c-17.21875-.71875-34.019531-5.519531-49.023437-14 26.210937-27.773437 45.859375-61.074219 57.496094-97.445313 8.351562-26.019531 13.011719-53.085937 13.851562-80.398437.039063-1.328125-.449219-2.613281-1.359375-3.578125s-2.164062-1.53125-3.492187-1.566406c-2.746094-.042969-5.023438 2.109375-5.140625 4.851562-.8125 26.375-5.3125 52.503906-13.375 77.632813-16.488282 50.921875-56.289063 119.621093-152.21875 157.664062-4.417969 1.816407-9.46875 1.117188-13.226563-1.832031-3.753906-2.949219-5.632812-7.6875-4.917969-12.410156.714844-4.722656 3.914063-8.691406 8.375-10.394532 29.9375-11.46875 57.304688-28.75 80.527344-50.847656.039063-.042968.097656-.054687.140625-.09375.042969-.039062.046875-.089844.089844-.132812 78.0625-75.765625 67.769531-180.210938 67.621094-181.535156-.609375-4.75 1.386719-9.457032 5.226562-12.316407 3.839844-2.863281 8.921875-3.433593 13.300781-1.488281 4.375 1.941406 7.363282 6.089844 7.816407 10.855469.175781 1.796875 1.304687 3.359375 2.957031 4.085937 1.648438.730469 3.5625.515625 5.007812-.5625 1.449219-1.078125 2.199219-2.851562 1.972657-4.640625-1.429688-12.761719-12.933594-21.953125-25.695313-20.523437-12.761718 1.429687-21.949218 12.933594-20.519531 25.695312.132813 1.238282 9.339844 97.785156-61.332031 169.820313-9.832032-10.308594-18.382813-21.765625-25.46875-34.121094-6.085938-11.09375-19.921875-15.285156-31.140625-9.433594-11.214844 5.851563-15.695313 19.59375-10.082031 30.933594 8.402343 15.226563 18.625 29.378906 30.4375 42.144531-14.046876 9.082032-28.972657 16.738282-44.542969 22.851563-11.9375 4.734375-17.777344 18.25-13.042969 30.1875s18.25 17.777343 30.1875 13.042969c34.703125-13.324219 66.410156-33.417969 93.28125-59.109376 16.980469 10.09375 36.207031 15.8125 55.945312 16.644532 7.226563.25 12.914063 6.242187 12.789063 13.46875-.121094 7.230468-6.015625 13.023437-13.246094 13.027344h-.480469c-23.101562-.859376-45.664062-7.210938-65.820312-18.523438-2.417969-1.335938-5.460938-.460938-6.800781 1.957031-1.335938 2.414063-.460938 5.457031 1.957031 6.796875 21.550781 12.085938 45.671875 18.859375 70.367188 19.761719h.800781c12.707031.03125 23.082031-10.144531 23.300781-22.851563.21875-12.703124-9.800781-23.230468-22.503906-23.636718zm-143.742187-60.382813c-3.390625-6.484374-.882813-14.492187 5.605469-17.882812 6.488281-3.394531 14.496094-.882812 17.886718 5.605469 7.542969 13.199219 16.660157 25.4375 27.144532 36.445312-6.542969 6.050781-13.460938 11.6875-20.707032 16.878907-11.605468-12.417969-21.65625-26.199219-29.929687-41.046876zm0 0"/><path d="m117.203125 144.5c-15.78125 0-28.578125 12.792969-28.578125 28.574219 0 15.785156 12.796875 28.578125 28.578125 28.578125s28.574219-12.792969 28.574219-28.578125c-.015625-15.773438-12.800782-28.554688-28.574219-28.574219zm0 47.152344c-10.261719 0-18.578125-8.316406-18.578125-18.578125 0-10.257813 8.316406-18.574219 18.578125-18.574219 10.257813 0 18.574219 8.316406 18.574219 18.574219-.011719 10.253906-8.320313 18.566406-18.574219 18.578125zm0 0"/><path d="m354.480469 257.054688c-10.324219 0-18.691407 8.367187-18.691407 18.6875 0 10.324218 8.367188 18.691406 18.691407 18.691406 10.320312 0 18.6875-8.367188 18.6875-18.691406-.015625-10.3125-8.375-18.671876-18.6875-18.6875zm0 27.382812c-4.800781 0-8.691407-3.890625-8.691407-8.691406 0-4.796875 3.890626-8.6875 8.691407-8.6875 4.796875 0 8.6875 3.890625 8.6875 8.6875-.011719 4.796875-3.894531 8.679687-8.6875 8.6875zm0 0"/><path d="m71 327.785156c-12.945312 0-23.441406 10.492188-23.441406 23.4375 0 12.945313 10.496094 23.441406 23.441406 23.441406s23.4375-10.496093 23.4375-23.441406c-.015625-12.9375-10.5-23.421875-23.4375-23.4375zm0 36.882813c-7.425781 0-13.441406-6.015625-13.441406-13.441407 0-7.421874 6.015625-13.4375 13.441406-13.4375 7.421875 0 13.4375 6.015626 13.4375 13.4375-.011719 7.417969-6.019531 13.429688-13.4375 13.4375zm0 0"/><path d="m163.210938 38.144531c10.53125-.007812 19.070312-8.539062 19.078124-19.074219 0-2.757812-2.238281-5-5-5-2.761718 0-5 2.242188-5 5 0 5.007813-4.0625 9.066407-9.066406 9.066407-5.007812 0-9.066406-4.058594-9.066406-9.066407-.003906-5.007812 4.054688-9.066406 9.0625-9.070312 2.761719 0 5-2.238281 5-5s-2.238281-5-5-5c-10.53125 0-19.070312 8.539062-19.070312 19.070312s8.539062 19.070313 19.070312 19.070313zm0 0"/><path d="m236.933594 376.070312c-10.320313 0-18.6875 8.367188-18.6875 18.691407 0 10.320312 8.367187 18.6875 18.6875 18.6875 10.320312 0 18.6875-8.367188 18.6875-18.6875-.011719-10.316407-8.371094-18.675781-18.6875-18.691407zm0 27.382813c-4.796875 0-8.6875-3.890625-8.6875-8.6875 0-4.800781 3.890625-8.691406 8.6875-8.691406 4.800781 0 8.6875 3.890625 8.6875 8.691406-.003906 4.792969-3.890625 8.679687-8.6875 8.6875zm0 0"/></g></svg>