<svg height="413pt" viewBox="0 -15 413.52252 413" width="413pt" xmlns="http://www.w3.org/2000/svg"><path d="m89.191406 105.925781c16.171875-9.835937 29.050782-24.261719 37-41.4375 14-29.335937 70-46.335937 109-15.335937s84 48 114 41 46 26.609375 29 44.304687c-17 17.695313-94 105.695313-52 143.695313s-41 129.984375-123 22.972656-94-35-133-42-77.992187-100.445312 19-153.199219zm0 0" fill="#74c7c5"/><path d="m257.003906 162.347656c0-22.910156-22.183594-41.480468-49.546875-41.480468-27.367187 0-49.546875 18.570312-49.546875 41.480468 0 22.914063 22.179688 41.484375 49.546875 41.484375 27.363281 0 49.546875-18.570312 49.546875-41.484375zm0 0" fill="#fff"/><path d="m294.925781 344.925781c-3.324219.734375-6.710937 1.152344-10.113281 1.25-.558594-.085937-1.128906-.078125-1.683594.03125-18.21875.035157-45.65625-8.574219-75.953125-48.105469-11.066406-14.976562-23.59375-28.816406-37.390625-41.324218-.027344-.035156-.035156-.082032-.066406-.117188-.179688-.164062-.375-.320312-.582031-.453125-34.269531-29.441406-53.398438-19.058593-70.753907-9.601562-9.261718 5.046875-17.246093 9.414062-27.289062 7.601562-4.648438-.949219-9.019531-2.957031-12.769531-5.863281-.074219-.0625-.113281-.15625-.195313-.214844-.085937-.058594-.226562-.085937-.328125-.15625-10.46875-8.738281-17.949219-20.527344-21.398437-33.71875-4.082032-14.328125-9.566406-51.332031 27.675781-84.820312 2.050781-1.847656 2.21875-5.007813.371094-7.0625-1.847657-2.054688-5.007813-2.21875-7.0625-.375-1.570313 1.417968-3.054688 2.835937-4.496094 4.265625l-13.167969-21.566407c-1.441406-2.355468-4.523437-3.09375-6.878906-1.648437-2.355469 1.441406-3.09375 4.523437-1.652344 6.878906l14.648438 24c-7.902344 9.191407-13.972656 19.808594-17.882813 31.285157l-20.476562-11.289063c-1.566407-.894531-3.496094-.878906-5.042969.046875-1.550781.925781-2.4804688 2.613281-2.4375 4.417969.046875 1.804687 1.058594 3.441406 2.652344 4.289062l22.628906 12.449219c-2.542969 12.457031-2.390625 25.3125.441406 37.707031h-20.65625c-2.757812 0-4.9999998 2.238281-4.9999998 5s2.2421878 5 4.9999998 5h23.625c3.980469 11.5 10.699219 21.859375 19.574219 30.183594l-16.800781 22.59375c-1.648438 2.214844-1.191406 5.347656 1.023437 6.996094 2.21875 1.652343 5.351563 1.191406 7-1.023438l16.800781-22.574219c4.007813 2.460938 8.429688 4.175782 13.050782 5.058594 12.21875 2.183594 21.867187-2.246094 31.019531-7.148437l-5.597656 15.296875c-.65625 1.6875-.347657 3.59375.804687 4.992187 1.15625 1.394531 2.972656 2.054688 4.753906 1.730469 1.777344-.324219 3.246094-1.585938 3.832032-3.296875l9.28125-25.421875c11.757812-5.015625 24.855468-6 44.847656 9.703125l-28.089844 24.214844c-2.089844 1.804687-2.324218 4.960937-.519531 7.054687 1.800781 2.09375 4.960937 2.324219 7.050781.523438l29.246094-25.203125c10.996094 10.46875 21.136719 21.804687 30.320312 33.898437l-30.03125 25.019532c-2.125 1.765624-2.410156 4.917968-.644531 7.042968 1.769531 2.121094 4.921875 2.40625 7.042969.640625l29.835938-24.859375c8.488281 10.820313 18.296874 20.539063 29.199218 28.917969l-17.851562 18.640625c-1.359375 1.261719-1.910156 3.171875-1.425782 4.964844.480469 1.789062 1.914063 3.167968 3.722657 3.578125 1.808593.410156 3.699219-.21875 4.902343-1.625l18.960938-19.796875c11.25 7.304687 24.101562 11.78125 37.457031 13.042968l-6.164062 21.234376c-.769531 2.652343.753906 5.425781 3.40625 6.195312.457031.132812.925781.199219 1.402343.199219 2.222657 0 4.175782-1.46875 4.796876-3.601563l6.960937-23.964844c3.105469-.222656 6.1875-.671874 9.230469-1.34375 2.648437-.644531 4.289062-3.289062 3.695312-5.949218-.597656-2.660156-3.214844-4.351563-5.886718-3.804688zm0 0" fill="#2f2754"/><path d="m369.867188 68.324219c1.550781.003906 3.015624-.714844 3.960937-1.941407l1.601563-2.0625c1.125-1.410156 1.40625-3.320312.726562-4.996093-.675781-1.675781-2.203125-2.851563-3.996094-3.082031-1.792968-.230469-3.570312.523437-4.648437 1.972656l-1.597657 2.058594c-1.167968 1.507812-1.371093 3.546874-.535156 5.257812.839844 1.710938 2.578125 2.796875 4.484375 2.796875zm0 0" fill="#2f2754"/><path d="m413.027344 93.101562c-.570313-1.195312-1.59375-2.117187-2.84375-2.558593-1.253906-.441407-2.628906-.367188-3.824219.207031l-20.644531 9.871094c-5.316406-9.375-14.953125-15.492188-25.699219-16.316406l5.003906-6.496094c1.144531-1.410156 1.433594-3.332032.757813-5.015625-.679688-1.683594-2.21875-2.871094-4.019532-3.09375-1.804687-.226563-3.585937.542969-4.65625 2.011719l-10.675781 13.855468c-10.796875 1.789063-21.847656 1.316406-32.449219-1.390625l4.972657-18.226562c.726562-2.664063-.84375-5.414063-3.507813-6.140625-2.664062-.726563-5.414062.84375-6.140625 3.507812l-4.996093 18.304688c-13.632813-4.390625-26.710938-10.351563-38.96875-17.761719l22.132812-19.933594c1.835938-1.886719 1.894531-4.875.132812-6.832031-1.761718-1.957031-4.738281-2.214844-6.808593-.585938l-24.265625 21.835938c-6.117188-4-12.210938-8.363281-18.195313-13.117188-3.261719-2.578124-6.71875-4.898437-10.339843-6.941406l14.398437-23.769531c1.4375-2.359375.6875-5.441406-1.675781-6.875-2.363282-1.4375-5.441406-.6875-6.878906 1.675781l-14.867188 24.53125c-11.382812-4.671875-23.65625-6.765625-35.945312-6.121094v-22.464843c0-2.761719-2.238282-5-5-5-2.761719 0-5 2.238281-5 5v23.546875c-1.84375.304687-3.683594.652344-5.527344 1.078125-7.308594 1.675781-14.355469 4.34375-20.945313 7.929687l-16.261719-24.648437c-.96875-1.527344-2.6875-2.417969-4.492187-2.320313-1.808594.097656-3.421875 1.160156-4.222656 2.785156-.796875 1.625-.65625 3.554688.371093 5.042969l16.1875 24.535157c-6.945312 4.949218-12.585937 11.503906-16.441406 19.109374-.957031 2-1.964844 3.894532-3 5.726563l-18.300781-19.078125c-1.207031-1.398438-3.089844-2.015625-4.894531-1.601562-1.800782.410156-3.230469 1.785156-3.710938 3.566406-.484375 1.785156.058594 3.691406 1.40625 4.957031l20 20.84375c-6.128906 8.628906-13.679687 16.148437-22.335937 22.242187l-15.773438-25.878906c-1.460937-2.308594-4.496093-3.019531-6.828125-1.597656-2.332031 1.417969-3.09375 4.441406-1.714844 6.796875l15.75 25.835937c-3.414062 2-6.75 4.027344-9.871093 6.152344-2.253907 1.566406-2.824219 4.652344-1.28125 6.917969s4.621093 2.867187 6.902343 1.351563c4.238282-2.882813 8.800782-5.660157 13.515626-8.222657 17.152343-10.3125 30.808593-25.539062 39.203124-43.707031 5.945313-12.46875 20.910157-22.800781 39.039063-27 21.738281-5.308594 44.710937-.363281 62.339844 13.425781 21.785156 17.84375 46.886719 31.199219 73.855469 39.300781.15625.09375.320312.175782.488281.246094.273437.058594.554687.097656.835937.113282 13.933594 4.1875 28.667969 4.980468 42.96875 2.304687h.042969c10.308594-3.117187 21.398437 1.304687 26.734375 10.65625 4.882812 8.054687 3.875 18.363281-2.472656 25.316406-11.425782 12.1875-22.042969 25.105469-31.777344 38.679688-.144531.144531-.277344.292969-.398438.453125-.039062.058594-.035156.132812-.066406.195312-8.417968 11.609375-15.832031 23.910156-22.171875 36.773438-.054687.082031-.140625.136718-.191406.222656-.078125.203125-.144531.40625-.195313.617188-6.871093 14.550781-11.414062 29.410156-10.945312 42.84375.101562 11.867187 5.179688 23.144531 14 31.082031 6.484375 5.667969 10.019531 13.988281 9.601562 22.585937-1.007812 12.402344-7.367187 23.75-17.417968 31.082032-.113282.089843-.167969.222656-.269532.316406-.46875.449218-.859374.972656-1.148437 1.554687-.421875.867188-.5625 1.847657-.402344 2.796875.042969.324219.121094.640625.230469.949219.050781.144531.039062.296875.101562.4375l10.71875 23.109375c1.160157 2.507812 4.132813 3.597656 6.636719 2.433594 2.507813-1.160156 3.597657-4.132813 2.433594-6.640625l-9.125-19.675781c8.125-7.0625 13.972656-16.378907 16.800781-26.765626l24.085938 8.640626c1.6875.632812 3.582031.304687 4.960937-.851563 1.382813-1.160156 2.03125-2.972656 1.703125-4.742187-.328125-1.773438-1.585937-3.230469-3.289062-3.816407l-26.023438-9.34375c.238282-11.242187-4.464844-22.027343-12.875-29.496093-1.273437-1.164063-2.453125-2.425782-3.535156-3.773438l22.046875-5.902344c2.644531-.734375 4.203125-3.460937 3.496094-6.113281-.710938-2.648437-3.425781-4.234375-6.082031-3.546875l-24.542969 6.574219c-1.277344-3.621094-1.980469-7.417969-2.085938-11.253907.132813-11.660156 2.78125-23.152343 7.773438-33.6875l24.398437 13.578126c2.414063 1.34375 5.460938.476562 6.804688-1.933594 1.34375-2.414063.476562-5.460938-1.9375-6.804688l-24.992188-13.917968c5.113282-9.878907 10.902344-19.394532 17.324219-28.480469l30.089844 17.113281c1.554687.898438 3.472656.898438 5.023437-.007812 1.550782-.902344 2.5-2.570313 2.480469-4.363282-.015625-1.796875-.992187-3.445312-2.558594-4.320312l-29.148437-16.578125c6.71875-9.023438 13.199218-16.832031 18.210937-22.605469l20.800781 14.023438c2.289063 1.546874 5.398438.941406 6.945313-1.347657 1.546875-2.289062.945313-5.398437-1.347656-6.945312l-19.671875-13.261719c1.488281-1.601562 2.484375-2.664062 2.765625-2.957031 7.066406-7.441407 9.898437-17.953125 7.523437-27.9375l21.328125-10.199219c1.199219-.574219 2.121094-1.597656 2.5625-2.851562.441407-1.253907.367188-2.632813-.210937-3.828126zm0 0" fill="#2f2754"/><g fill="#fff"><path d="m226.820312 285.800781c-11.875-25.296875-47.449218-53.148437-48.957031-54.324219-2.179687-1.695312-5.320312-1.300781-7.015625.878907-1.695312 2.179687-1.304687 5.324219.875 7.019531.355469.269531 35.179688 27.53125 46.046875 50.679688 12.132813 25.871093 44.367188 38.25 58.128907 38.867187h.230468c2.761719.058594 5.046875-2.128906 5.109375-4.890625s-2.128906-5.050781-4.890625-5.109375c-9.878906-.433594-39.121094-10.9375-49.527344-33.121094zm0 0"/><path d="m66.035156 153.988281c-1.136718-.683593-2.496094-.890625-3.785156-.570312-1.289062.320312-2.394531 1.140625-3.078125 2.277343-.800781 1.355469-19.683594 33.4375 2.621094 57.441407 1.894531 1.945312 4.992187 2.019531 6.980469.175781 1.988281-1.847656 2.144531-4.941406.347656-6.976562-17.136719-18.4375-2.0625-44.335938-1.375-45.484376 1.421875-2.367187.65625-5.4375-1.710938-6.863281zm0 0"/><path d="m302.207031 106.085938c-12.542969 1.460937-48.078125-11.339844-65.488281-33.476563-8.3125-9.792969-19.738281-16.429687-32.363281-18.800781-2.6875-.632813-5.382813 1.03125-6.015625 3.71875-.632813 2.691406 1.03125 5.382812 3.71875 6.019531 10.414062 1.882813 19.871094 7.265625 26.800781 15.261719 18.058594 22.96875 53.335937 37.40625 71.335937 37.40625 1.0625.003906 2.121094-.054688 3.175782-.171875 2.738281-.328125 4.695312-2.808594 4.375-5.546875-.320313-2.738282-2.796875-4.703125-5.539063-4.386719zm0 0"/><path d="m175.222656 61.332031c.039063 0 2.933594-.246093 7.464844-.160156 2.761719.058594 5.046875-2.136719 5.101562-4.898437.058594-2.757813-2.136718-5.042969-4.898437-5.101563-5.089844-.097656-8.398437.183594-8.542969.195313-2.761718.121093-4.902344 2.457031-4.78125 5.21875.125 2.761718 2.460938 4.902343 5.222656 4.78125.148438-.019532.292969-.023438.433594-.035157zm0 0"/></g><path d="m152.917969 162.347656c0 25.632813 24.464843 46.484375 54.542969 46.484375 30.074218 0 54.53125-20.851562 54.53125-46.484375 0-25.628906-24.457032-46.476562-54.53125-46.476562-30.078126 0-54.542969 20.855468-54.542969 46.476562zm54.542969-36.480468c24.5625 0 44.546874 16.363281 44.546874 36.480468 0 20.121094-20 36.484375-44.546874 36.484375-24.546876 0-44.542969-16.367187-44.542969-36.484375 0-20.113281 19.976562-36.476562 44.542969-36.476562zm0 0" fill="#2f2754"/><path d="m228.324219 162.347656c0 2.761719 2.238281 5 5 5s5-2.238281 5-5c-.136719-7.605468-3.707031-14.746094-9.707031-19.421875-1.382813-1.171875-3.289063-1.503906-4.984376-.867187-1.695312.632812-2.917968 2.136718-3.191406 3.925781-.273437 1.789063.441406 3.589844 1.871094 4.699219 3.683594 2.765625 5.898438 7.0625 6.011719 11.664062zm0 0" fill="#2f2754"/><path d="m207.460938 145.703125c.933593-.003906 1.871093.046875 2.800781.144531.179687.019532.359375.03125.542969.03125 2.601562-.078125 4.707031-2.136718 4.84375-4.734375.140624-2.597656-1.738282-4.867187-4.316407-5.21875-1.285156-.140625-2.578125-.207031-3.871093-.207031-2.761719 0-5 2.238281-5 5s2.238281 5 5 5zm0 0" fill="#2f2754"/></svg>